<svg width="44" height="33" viewBox="0 0 44 33" fill="none" xmlns="http://www.w3.org/2000/svg">
<path fill-rule="evenodd" clip-rule="evenodd" d="M43.961 6.04643V16.4483C43.9623 16.4658 43.9711 16.4793 43.9798 16.4927C43.989 16.507 43.9983 16.5213 43.9983 16.5401C43.9983 16.5576 43.9893 16.5711 43.9801 16.5848C43.9713 16.5979 43.9623 16.6112 43.961 16.6286V26.9695C43.961 27.402 43.6057 27.7498 43.1705 27.7498H40.5326C40.0973 27.7498 39.745 27.402 39.745 26.9695C39.745 26.538 40.0973 26.1887 40.5326 26.1887H42.3828V17.3189H35.2567C34.8214 17.3189 34.469 16.9699 34.469 16.5401V6.8249H28.1307V21.144C28.1307 21.5732 27.7784 21.9249 27.3431 21.9249C26.9076 21.9249 26.5525 21.5732 26.5525 21.144V6.04643V1.55525H1.59095V26.1887H3.46996C3.90526 26.1887 4.26047 26.538 4.26047 26.9695C4.26047 27.402 3.90526 27.7498 3.46996 27.7498H0.803338C0.367856 27.7498 0.0127356 27.402 0.0127356 26.9695V0.777364C0.0127356 0.34702 0.367856 -0.00110042 0.803338 -0.00110042H27.3431C27.7784 -0.00110042 28.1307 0.34702 28.1307 0.777364V5.26498H43.1705C43.6057 5.26498 43.961 5.61605 43.961 6.04643ZM36.0444 15.7587H42.3828V6.8249H36.0444V15.7587ZM26.5153 26.9719C26.5153 23.6535 29.2476 20.9549 32.6073 20.9549C35.9612 20.9549 38.6908 23.6535 38.6908 26.9719C38.6908 30.2921 35.9612 32.9916 32.6073 32.9916C29.2476 32.9916 26.5153 30.2921 26.5153 26.9719ZM28.0933 26.9719C28.0933 29.4322 30.1184 31.432 32.6073 31.432C35.0905 31.432 37.1127 29.4322 37.1127 26.9719C37.1127 24.5131 35.0905 22.5142 32.6073 22.5142C30.1184 22.5142 28.0933 24.5131 28.0933 26.9719ZM5.31433 26.9695C5.31433 23.6508 8.04401 20.951 11.4037 20.951C14.7604 20.951 17.493 23.6508 17.493 26.9695C17.493 30.2906 14.7604 32.9886 11.4037 32.9886C8.04401 32.9886 5.31433 30.2906 5.31433 26.9695ZM6.88983 26.9695C6.88983 29.4293 8.9147 31.4293 11.4037 31.4293C13.8897 31.4293 15.9149 29.4293 15.9149 26.9695C15.9149 24.5107 13.8897 22.5133 11.4037 22.5133C8.9147 22.5133 6.88983 24.5107 6.88983 26.9695ZM19.3346 26.1887H24.6736C25.1089 26.1887 25.4611 26.538 25.4611 26.9695C25.4611 27.402 25.1089 27.7498 24.6736 27.7498H19.3346C18.8993 27.7498 18.5471 27.402 18.5471 26.9695C18.5471 26.538 18.8993 26.1887 19.3346 26.1887Z" fill="url(#paint0_linear)"/>
<path fill-rule="evenodd" clip-rule="evenodd" d="M43.961 6.04643V16.4483C43.9623 16.4658 43.9711 16.4793 43.9798 16.4927C43.989 16.507 43.9983 16.5213 43.9983 16.5401C43.9983 16.5576 43.9893 16.5711 43.9801 16.5848C43.9713 16.5979 43.9623 16.6112 43.961 16.6286V26.9695C43.961 27.402 43.6057 27.7498 43.1705 27.7498H40.5326C40.0973 27.7498 39.745 27.402 39.745 26.9695C39.745 26.538 40.0973 26.1887 40.5326 26.1887H42.3828V17.3189H35.2567C34.8214 17.3189 34.469 16.9699 34.469 16.5401V6.8249H28.1307V21.144C28.1307 21.5732 27.7784 21.9249 27.3431 21.9249C26.9076 21.9249 26.5525 21.5732 26.5525 21.144V6.04643V1.55525H1.59095V26.1887H3.46996C3.90526 26.1887 4.26047 26.538 4.26047 26.9695C4.26047 27.402 3.90526 27.7498 3.46996 27.7498H0.803338C0.367856 27.7498 0.0127356 27.402 0.0127356 26.9695V0.777364C0.0127356 0.34702 0.367856 -0.00110042 0.803338 -0.00110042H27.3431C27.7784 -0.00110042 28.1307 0.34702 28.1307 0.777364V5.26498H43.1705C43.6057 5.26498 43.961 5.61605 43.961 6.04643ZM36.0444 15.7587H42.3828V6.8249H36.0444V15.7587ZM26.5153 26.9719C26.5153 23.6535 29.2476 20.9549 32.6073 20.9549C35.9612 20.9549 38.6908 23.6535 38.6908 26.9719C38.6908 30.2921 35.9612 32.9916 32.6073 32.9916C29.2476 32.9916 26.5153 30.2921 26.5153 26.9719ZM28.0933 26.9719C28.0933 29.4322 30.1184 31.432 32.6073 31.432C35.0905 31.432 37.1127 29.4322 37.1127 26.9719C37.1127 24.5131 35.0905 22.5142 32.6073 22.5142C30.1184 22.5142 28.0933 24.5131 28.0933 26.9719ZM5.31433 26.9695C5.31433 23.6508 8.04401 20.951 11.4037 20.951C14.7604 20.951 17.493 23.6508 17.493 26.9695C17.493 30.2906 14.7604 32.9886 11.4037 32.9886C8.04401 32.9886 5.31433 30.2906 5.31433 26.9695ZM6.88983 26.9695C6.88983 29.4293 8.9147 31.4293 11.4037 31.4293C13.8897 31.4293 15.9149 29.4293 15.9149 26.9695C15.9149 24.5107 13.8897 22.5133 11.4037 22.5133C8.9147 22.5133 6.88983 24.5107 6.88983 26.9695ZM19.3346 26.1887H24.6736C25.1089 26.1887 25.4611 26.538 25.4611 26.9695C25.4611 27.402 25.1089 27.7498 24.6736 27.7498H19.3346C18.8993 27.7498 18.5471 27.402 18.5471 26.9695C18.5471 26.538 18.8993 26.1887 19.3346 26.1887Z" fill="#E91727"/>
<defs>
<linearGradient id="paint0_linear" x1="17.0063" y1="-16.0841" x2="-8.84851" y2="26.1295" gradientUnits="userSpaceOnUse">
<stop stop-color="white"/>
<stop offset="1" stop-color="white"/>
</linearGradient>
</defs>
</svg>
